<?xml version="1.0" encoding="utf-8"?>
<!-- Generator: Adobe Illustrator 27.3.1, SVG Export Plug-In . SVG Version: 6.00 Build 0)  -->
<svg version="1.1" xmlns="http://www.w3.org/2000/svg" xmlns:xlink="http://www.w3.org/1999/xlink" x="0px" y="0px"
	 viewBox="0 0 1000 1000" style="enable-background:new 0 0 1000 1000;" xml:space="preserve">
<style type="text/css">
	.st0{display:none;}
	.st1{display:inline;fill:#FFFFFF;}
	.st2{display:inline;}
	.st3{fill:#0568A0;}
	.st4{display:inline;fill:#F57E2B;}
	.st5{fill:#A14C9D;}
	.st6{fill:#F57E2B;}
	.st7{fill:#FFFFFF;}
</style>
<g id="cool_backup" class="st0">
	<circle class="st1" cx="167.22" cy="178.39" r="2.42"/>
	<g id="side_00000097491570218529221760000012141853912152249487_" class="st2">
		<g>
			<g class="st0">
				<g class="st2">
					<path class="st3" d="M324.71,220.08c-4.9,2.06-8.96,5.28-12,9.2l-169.89,1.78c-2.61,0.03-4.72,2.18-4.69,4.79l0.12,11.52
						c-0.01,0.14-0.02,0.29-0.02,0.44l0.65,62.39c0.03,2.61,2.18,4.72,4.79,4.69l23.99-0.25c2.61-0.03,4.72-2.18,4.69-4.79
						l-0.48-46.03l138.49-1.45c7.36,12.92,23.38,18.6,37.43,12.7c15.19-6.38,22.33-23.86,15.95-39.04
						C357.38,220.85,339.9,213.7,324.71,220.08z M342.56,262.59c-8.29,3.48-17.84-0.42-21.32-8.71c-3.48-8.29,0.42-17.84,8.71-21.32
						c8.29-3.48,17.84,0.42,21.32,8.71C354.76,249.57,350.86,259.11,342.56,262.59z"/>
				</g>
			</g>
			<g class="st0">
				<path class="st4" d="M260.44,273.54l-74.5,0.78c-2.61,0.03-4.72,2.18-4.69,4.79l0.23,22.04c0.03,2.61,2.18,4.72,4.79,4.69
					l74.5-0.78c2.61-0.03,4.72-2.18,4.69-4.79l-0.23-22.04C265.21,275.63,263.05,273.51,260.44,273.54z"/>
			</g>
		</g>
	</g>
	<g id="side_00000077290399418198618360000014565924008637936006_" class="st2">
		<path class="st5" d="M208.91,20.9c2.06,4.9,5.28,8.96,9.2,12l1.78,169.89c0.03,2.61,2.18,4.72,4.79,4.69l11.52-0.12
			c0.14,0.01,0.29,0.02,0.44,0.02l62.39-0.65c2.61-0.03,4.72-2.18,4.69-4.79l-0.25-23.99c-0.03-2.61-2.18-4.72-4.79-4.69
			l-46.03,0.48l-1.45-138.49c12.92-7.36,18.6-23.38,12.7-37.43c-6.38-15.19-23.86-22.33-39.04-15.95S202.54,5.71,208.91,20.9z
			 M251.43,3.05c3.48,8.29-0.42,17.84-8.71,21.32c-8.29,3.48-17.84-0.42-21.32-8.71c-3.48-8.29,0.42-17.84,8.71-21.32
			C238.4-9.15,247.95-5.25,251.43,3.05z"/>
		<path class="st3" d="M262.37,85.17l0.78,74.5c0.03,2.61,2.18,4.72,4.79,4.69l22.04-0.23c2.61-0.03,4.72-2.18,4.69-4.79l-0.78-74.5
			c-0.03-2.61-2.18-4.72-4.79-4.69l-22.04,0.23C264.46,80.4,262.35,82.56,262.37,85.17z"/>
	</g>
	<g id="side_00000180337252249912550690000011495232961405407386_" class="st2">
		<path class="st3" d="M9.73,136.7c4.9-2.06,8.96-5.28,12-9.2l169.89-1.78c2.61-0.03,4.72-2.18,4.69-4.79l-0.12-11.52
			c0.01-0.14,0.02-0.29,0.02-0.44l-0.65-62.39c-0.03-2.61-2.18-4.72-4.79-4.69l-23.99,0.25c-2.61,0.03-4.72,2.18-4.69,4.79
			l0.48,46.03L24.07,94.4C16.71,81.49,0.7,75.8-13.36,81.7c-15.19,6.38-22.33,23.86-15.95,39.04S-5.46,143.07,9.73,136.7z
			 M-8.12,94.18c8.29-3.48,17.84,0.42,21.32,8.71c3.48,8.29-0.42,17.84-8.71,21.32c-8.29,3.48-17.84-0.42-21.32-8.71
			C-20.31,107.21-16.41,97.67-8.12,94.18z"/>
		<path class="st5" d="M74,83.24l74.5-0.78c2.61-0.03,4.72-2.18,4.69-4.79l-0.23-22.04c-0.03-2.61-2.18-4.72-4.79-4.69l-74.5,0.78
			c-2.61,0.03-4.72,2.18-4.69,4.79l0.23,22.04C69.24,81.15,71.39,83.26,74,83.24z"/>
	</g>
	<g id="side_00000001644140408031790070000012712722047053357239_" class="st2">
		<path class="st6" d="M125.53,335.88c-2.06-4.9-5.28-8.96-9.2-12l-1.78-169.89c-0.03-2.61-2.18-4.72-4.79-4.69l-11.52,0.12
			c-0.14-0.01-0.29-0.02-0.44-0.02l-62.39,0.65c-2.61,0.03-4.72,2.18-4.69,4.79l0.25,23.99c0.03,2.61,2.18,4.72,4.79,4.69
			l46.03-0.48l1.45,138.49c-12.92,7.36-18.6,23.38-12.7,37.43c6.38,15.19,23.86,22.33,39.04,15.95
			C124.76,368.55,131.91,351.07,125.53,335.88z M83.02,353.73c-3.48-8.29,0.42-17.84,8.71-21.32c8.29-3.48,17.84,0.42,21.32,8.71
			s-0.42,17.84-8.71,21.32C96.04,365.92,86.5,362.02,83.02,353.73z"/>
		<path class="st3" d="M72.07,271.61l-0.78-74.5c-0.03-2.61-2.18-4.72-4.79-4.69l-22.04,0.23c-2.61,0.03-4.72,2.18-4.69,4.79
			l0.78,74.5c0.03,2.61,2.18,4.72,4.79,4.69l22.04-0.23C69.98,276.38,72.1,274.22,72.07,271.61z"/>
	</g>
	<path id="middle_rectangle" class="st2" d="M195.74,216.84l-55.21,0.17c-6.96,0.02-12.79-5.78-12.96-12.88l-1.22-51.23
		c-0.17-7.11,5.39-12.94,12.34-12.96l55.21-0.17c6.96-0.02,12.79,5.78,12.96,12.88l1.22,51.23
		C208.26,210.99,202.7,216.82,195.74,216.84z"/>
</g>
<g id="sqm">
	<g id="new_side">
		<path class="st3" d="M904.52,808.99c-28.39-11.47-59.19-7.31-82.93,8.4L510.74,691.8l-61.04-24.66l-34.01-13.74l-41.82-16.9
			l-22.68-9.16c-8.87-3.58-19.07,0.74-22.65,9.61l-81.16,200.87c-3.58,8.87,0.74,19.07,9.61,22.65l64.5,26.06
			c8.87,3.58,19.07-0.74,22.65-9.61L394.7,751.8l17.88,7.22l61.04,24.66l309.62,125.09c5.56,28.76,25.11,54.22,54.29,66.01
			c45.79,18.5,97.9-3.62,116.4-49.41C972.42,879.6,950.3,827.49,904.52,808.99z M852.73,937.16c-25.01-10.1-37.09-38.56-26.98-63.57
			c10.1-25.01,38.56-37.09,63.57-26.98c25.01,10.1,37.09,38.56,26.98,63.57C906.2,935.19,877.73,947.27,852.73,937.16z"/>
		<path class="st6" d="M628.44,881.28l-206.66-83.5c-7.36-2.97-15.82,0.62-18.79,7.98l-25.03,61.95
			c-2.97,7.36,0.62,15.82,7.98,18.79L592.59,970c7.36,2.97,15.82-0.62,18.79-7.98l25.03-61.95
			C639.39,892.71,635.8,884.26,628.44,881.28z"/>
	</g>
	<g id="new_side_00000045620224941045646680000001031531931267368591_">
		<path class="st5" d="M808.99,95.48c-11.47,28.39-7.31,59.19,8.4,82.93L691.8,489.26l-24.66,61.04l-13.74,34.01l-16.9,41.82
			l-9.16,22.68c-3.58,8.87,0.74,19.07,9.61,22.65l200.87,81.16c8.87,3.58,19.07-0.74,22.65-9.61l26.06-64.5
			c3.58-8.87-0.74-19.07-9.61-22.65L751.8,605.3l7.22-17.88l24.66-61.04l125.09-309.62c28.76-5.56,54.22-25.11,66.01-54.29
			c18.5-45.79-3.62-97.9-49.41-116.4C879.6,27.58,827.49,49.7,808.99,95.48z M937.16,147.27c-10.1,25.01-38.56,37.09-63.57,26.98
			c-25.01-10.1-37.09-38.56-26.98-63.57c10.1-25.01,38.56-37.09,63.57-26.98C935.19,93.8,947.27,122.27,937.16,147.27z"/>
		<path class="st3" d="M881.28,371.56l-83.5,206.66c-2.97,7.36,0.62,15.82,7.98,18.79l61.95,25.03c7.36,2.97,15.82-0.62,18.79-7.98
			L970,407.41c2.97-7.36-0.62-15.82-7.98-18.79l-61.95-25.03C892.71,360.61,884.26,364.2,881.28,371.56z"/>
	</g>
	<g id="new_side_00000036974151927647046280000009023345769784608396_">
		<path class="st3" d="M95.48,191.01c28.39,11.47,59.19,7.31,82.93-8.4L489.26,308.2l61.04,24.66l34.01,13.74l41.82,16.9l22.68,9.16
			c8.87,3.58,19.07-0.74,22.65-9.61l81.16-200.87c3.58-8.87-0.74-19.07-9.61-22.65l-64.5-26.06c-8.87-3.58-19.07,0.74-22.65,9.61
			L605.3,248.2l-17.88-7.22l-61.04-24.66L216.77,91.22C211.2,62.46,191.66,37,162.47,25.21c-45.79-18.5-97.9,3.62-116.4,49.41
			C27.58,120.4,49.7,172.51,95.48,191.01z M147.27,62.84c25.01,10.1,37.09,38.56,26.98,63.57c-10.1,25.01-38.56,37.09-63.57,26.98
			c-25.01-10.1-37.09-38.56-26.98-63.57C93.8,64.81,122.27,52.73,147.27,62.84z"/>
		<path class="st5" d="M371.56,118.72l206.66,83.5c7.36,2.97,15.82-0.62,18.79-7.98l25.03-61.95c2.97-7.36-0.62-15.82-7.98-18.79
			L407.41,30c-7.36-2.97-15.82,0.62-18.79,7.98l-25.03,61.95C360.61,107.29,364.2,115.74,371.56,118.72z"/>
	</g>
	<g id="new_side_00000050658557907963882070000002148128941105844906_">
		<path class="st6" d="M191.01,904.52c11.47-28.39,7.31-59.19-8.4-82.93L308.2,510.74l24.66-61.04l13.74-34.01l16.9-41.82
			l9.16-22.68c3.58-8.87-0.74-19.07-9.61-22.65l-200.87-81.16c-8.87-3.58-19.07,0.74-22.65,9.61l-26.06,64.5
			c-3.58,8.87,0.74,19.07,9.61,22.65L248.2,394.7l-7.22,17.88l-24.66,61.04L91.22,783.23C62.46,788.8,37,808.34,25.21,837.53
			c-18.5,45.79,3.62,97.9,49.41,116.4C120.4,972.42,172.51,950.3,191.01,904.52z M62.84,852.73c10.1-25.01,38.56-37.09,63.57-26.98
			c25.01,10.1,37.09,38.56,26.98,63.57c-10.1,25.01-38.56,37.09-63.57,26.98C64.81,906.2,52.73,877.73,62.84,852.73z"/>
		<path class="st3" d="M118.72,628.44l83.5-206.66c2.97-7.36-0.62-15.82-7.98-18.79l-61.95-25.03c-7.36-2.97-15.82,0.62-18.79,7.98
			L30,592.59c-2.97,7.36,0.62,15.82,7.98,18.79l61.95,25.03C107.29,639.39,115.74,635.8,118.72,628.44z"/>
	</g>
	<path d="M529,652.58l-155.86-62.97c-23.84-9.63-35.36-36.77-25.73-60.61l62.97-155.86c9.63-23.84,36.77-35.36,60.61-25.73
		l155.86,62.97c23.84,9.63,35.36,36.77,25.73,60.61l-62.97,155.86C579.98,650.7,552.84,662.21,529,652.58z"/>
	<g>
		<g>
			<g>
				<path class="st7" d="M429.19,498.94c-4.33-1.68-8.33-3.8-11.98-6.35c-3.66-2.55-6.48-5.12-8.48-7.71l10.55-10.52
					c1.91,2.38,4.21,4.6,6.9,6.63c2.69,2.04,5.47,3.61,8.32,4.72c1.67,0.65,3.03,1.05,4.08,1.2c1.05,0.15,1.87,0.1,2.48-0.14
					c0.61-0.25,1.02-0.67,1.25-1.26c0.36-0.93,0.13-1.87-0.69-2.82c-0.82-0.94-2.01-1.93-3.57-2.96c-1.55-1.03-3.26-2.14-5.12-3.35
					c-1.86-1.2-3.67-2.54-5.45-4.03c-1.78-1.48-3.29-3.12-4.55-4.91c-1.26-1.79-2.05-3.81-2.36-6.06c-0.32-2.25,0.06-4.75,1.13-7.51
					c1.24-3.2,3.27-5.77,6.1-7.71c2.82-1.94,6.32-3,10.5-3.19c4.18-0.19,8.93,0.75,14.25,2.81c3.5,1.36,6.8,3.07,9.91,5.12
					c3.11,2.06,5.72,4.38,7.84,6.95l-10.15,10.59c-2.06-2.27-4.17-4.19-6.3-5.76c-2.14-1.57-4.34-2.79-6.61-3.67
					c-1.67-0.65-3.06-1.02-4.16-1.11c-1.1-0.09-1.95,0.04-2.56,0.36c-0.61,0.33-1.03,0.79-1.26,1.38c-0.34,0.89-0.1,1.79,0.73,2.71
					c0.83,0.92,2.03,1.88,3.6,2.88c1.56,1.01,3.29,2.1,5.18,3.29c1.89,1.19,3.71,2.52,5.46,3.99c1.75,1.47,3.26,3.11,4.52,4.9
					c1.26,1.79,2.05,3.8,2.38,6.02c0.33,2.22-0.04,4.69-1.09,7.4c-1.22,3.15-3.25,5.7-6.07,7.63c-2.82,1.94-6.31,3.02-10.48,3.24
					C439.33,501.95,434.56,501.02,429.19,498.94z"/>
				<path class="st7" d="M475.45,516.39c-3.5-1.36-6.41-3.45-8.74-6.28c-2.33-2.83-3.77-6.15-4.33-9.97
					c-0.56-3.82,0-7.89,1.69-12.22c1.68-4.33,4.02-7.72,7-10.16c2.99-2.44,6.3-3.93,9.94-4.47c3.64-0.54,7.21-0.13,10.7,1.22
					c3.74,1.45,6.45,3.35,8.11,5.7c1.67,2.35,2.41,5.26,2.22,8.73c-0.19,3.47-1.23,7.64-3.12,12.52c-1.85,4.78-3.92,8.49-6.2,11.15
					c-2.28,2.66-4.84,4.3-7.69,4.92C482.19,518.15,479,517.77,475.45,516.39z M484.49,504.94c1.23,0.48,2.45,0.61,3.67,0.4
					c1.21-0.21,2.35-0.79,3.4-1.74c1.05-0.95,1.91-2.29,2.58-4.01c0.69-1.77,0.97-3.36,0.84-4.78c-0.13-1.41-0.58-2.6-1.33-3.58
					s-1.75-1.7-2.98-2.18c-1.23-0.48-2.45-0.61-3.67-0.4c-1.21,0.21-2.35,0.79-3.4,1.74c-1.05,0.95-1.92,2.31-2.61,4.09
					c-0.67,1.72-0.94,3.29-0.81,4.7s0.57,2.6,1.33,3.58C482.26,503.74,483.26,504.46,484.49,504.94z M480.44,533.97l7.66-19.72
					l6.48-14.49l5.81-14.74l2.12-5.47l15.88,6.17l-21.25,54.73L480.44,533.97z"/>
				<path class="st7" d="M510.6,529.19l20.08-51.7l14.33,5.56l7.57,41.79l-7.53-2.93l33.2-25.95l14.33,5.57l-19.93,51.76
					l-15.88-6.17l10.64-27.83l2.51,0.97l-22.72,17.78l-7.68-2.98l-5.35-28.68l3.1,1.21l-10.79,27.77L510.6,529.19z"/>
			</g>
		</g>
	</g>
</g>
</svg>
